<mxfile host="app.diagrams.net" modified="2022-01-10T12:43:14.829Z" agent="5.0 (Macintosh; Intel Mac OS X 10_15_7) AppleWebKit/605.1.15 (KHTML, like Gecko) Version/14.1.2 Safari/605.1.15" etag="5buzpSvGNf04CGdmEkm8" version="16.2.4" type="github">
  <diagram id="RRx896oevRS4okK73JQX" name="Page-1">
    <mxGraphModel dx="2452" dy="1009" grid="1" gridSize="10" guides="1" tooltips="1" connect="1" arrows="1" fold="1" page="1" pageScale="1" pageWidth="827" pageHeight="1169" math="0" shadow="0">
      <root>
        <mxCell id="0" />
        <mxCell id="1" parent="0" />
        <mxCell id="PfznWHqxb57UuzOxslOH-5" value="" style="edgeStyle=orthogonalEdgeStyle;rounded=0;orthogonalLoop=1;jettySize=auto;html=1;fontFamily=Comic Sans MS;" edge="1" parent="1" source="PfznWHqxb57UuzOxslOH-1" target="PfznWHqxb57UuzOxslOH-4">
          <mxGeometry relative="1" as="geometry" />
        </mxCell>
        <mxCell id="PfznWHqxb57UuzOxslOH-1" value="&lt;font face=&quot;Comic Sans MS&quot;&gt;stop 时不能立即 stop recog&lt;/font&gt;" style="shape=ext;double=1;rounded=1;whiteSpace=wrap;html=1;" vertex="1" parent="1">
          <mxGeometry x="-660" y="230" width="220" height="80" as="geometry" />
        </mxCell>
        <mxCell id="PfznWHqxb57UuzOxslOH-4" value="&lt;font face=&quot;Comic Sans MS&quot;&gt;离开耳朵的时候才能变亮&lt;/font&gt;" style="shape=ext;double=1;rounded=1;whiteSpace=wrap;html=1;" vertex="1" parent="1">
          <mxGeometry x="-360" y="230" width="220" height="80" as="geometry" />
        </mxCell>
      </root>
    </mxGraphModel>
  </diagram>
</mxfile>
